<svg width="22" height="22" viewBox="0 0 22 22" fill="none" xmlns="http://www.w3.org/2000/svg">
<path d="M11.0009 2.43042C6.26773 2.43042 2.4303 6.26785 2.4303 11.001C2.4303 15.2781 5.56401 18.8233 9.66201 19.4687V13.479H7.48487V11.001H9.66201V9.11271C9.66201 6.96299 10.9417 5.77756 12.8986 5.77756C13.8363 5.77756 14.8186 5.94471 14.8186 5.94471V8.05242H13.7352C12.6723 8.05242 12.3397 8.71413 12.3397 9.39213V10.9993H14.7149L14.3352 13.4773H12.3397V19.467C16.4377 18.825 19.5714 15.279 19.5714 11.001C19.5714 6.26785 15.734 2.43042 11.0009 2.43042V2.43042Z" fill="#DD2E44"/>
</svg>
