<svg width="18" height="16" viewBox="0 0 18 16" fill="none" xmlns="http://www.w3.org/2000/svg">
<path d="M8.18664 3.11393L9.00018 4.25209L9.81372 3.11393C10.4553 2.21629 11.4945 1.63623 12.6682 1.63623C14.6049 1.63623 16.182 3.21372 16.182 5.16798C16.182 5.43816 16.1479 5.70474 16.0859 5.96894L16.0777 6.00397L16.072 6.03951C15.8028 7.72078 14.7059 9.55372 13.2273 11.1399C11.8733 12.5922 10.303 13.7263 9.00015 14.2875C7.69712 13.7263 6.12681 12.5923 4.77279 11.1398C3.29411 9.55363 2.19702 7.72049 1.92744 6.03884L1.92197 6.00471L1.91415 5.97103C1.85242 5.70506 1.81836 5.4377 1.81836 5.16798C1.81836 3.21339 3.39531 1.63623 5.33266 1.63623C6.50575 1.63623 7.54499 2.21624 8.18664 3.11393Z" stroke="#DD2E44" stroke-width="2"/>
</svg>
