<svg width="22" height="22" viewBox="0 0 22 22" fill="none" xmlns="http://www.w3.org/2000/svg">
<path d="M18.6689 7.83296C18.6602 7.18378 18.5387 6.54105 18.3097 5.93353C18.1112 5.42109 17.8079 4.9557 17.4193 4.5671C17.0307 4.1785 16.5653 3.87523 16.0529 3.67667C15.4531 3.45155 14.8196 3.32982 14.1791 3.31667C13.3546 3.27982 13.0931 3.26953 11 3.26953C8.90686 3.26953 8.63857 3.26953 7.82 3.31667C7.17985 3.32992 6.54658 3.45165 5.94714 3.67667C5.43462 3.87509 4.96916 4.17831 4.58054 4.56693C4.19192 4.95555 3.8887 5.42101 3.69028 5.93353C3.46471 6.53279 3.34325 7.1662 3.33114 7.80639C3.29428 8.63182 3.28314 8.89325 3.28314 10.9864C3.28314 13.0795 3.28314 13.347 3.33114 14.1664C3.344 14.8075 3.46486 15.4401 3.69028 16.041C3.88904 16.5533 4.19248 17.0186 4.58123 17.4071C4.96998 17.7955 5.43548 18.0986 5.948 18.297C6.5458 18.5311 7.17918 18.6616 7.82086 18.6827C8.64629 18.7195 8.90771 18.7307 11.0009 18.7307C13.094 18.7307 13.3623 18.7307 14.1809 18.6827C14.8213 18.6701 15.4549 18.5486 16.0546 18.3235C16.5669 18.1247 17.0321 17.8214 17.4207 17.4328C17.8093 17.0443 18.1126 16.579 18.3114 16.0667C18.5369 15.4667 18.6577 14.8341 18.6706 14.1921C18.7074 13.3675 18.7186 13.1061 18.7186 11.0121C18.7169 8.91896 18.7169 8.65325 18.6689 7.83296V7.83296ZM10.9949 14.9447C8.80571 14.9447 7.03228 13.1712 7.03228 10.9821C7.03228 8.79296 8.80571 7.01953 10.9949 7.01953C12.0458 7.01953 13.0537 7.43702 13.7968 8.18014C14.5399 8.92327 14.9574 9.93116 14.9574 10.9821C14.9574 12.033 14.5399 13.0409 13.7968 13.7841C13.0537 14.5272 12.0458 14.9447 10.9949 14.9447V14.9447ZM15.1151 7.79696C14.9938 7.79707 14.8736 7.77325 14.7614 7.72685C14.6493 7.68046 14.5473 7.6124 14.4615 7.52658C14.3757 7.44075 14.3076 7.33885 14.2612 7.22669C14.2149 7.11454 14.191 6.99433 14.1911 6.87296C14.1911 6.75167 14.215 6.63158 14.2614 6.51952C14.3079 6.40747 14.3759 6.30566 14.4617 6.2199C14.5474 6.13413 14.6492 6.0661 14.7613 6.01969C14.8733 5.97328 14.9934 5.94939 15.1147 5.94939C15.236 5.94939 15.3561 5.97328 15.4681 6.01969C15.5802 6.0661 15.682 6.13413 15.7678 6.2199C15.8535 6.30566 15.9216 6.40747 15.968 6.51952C16.0144 6.63158 16.0383 6.75167 16.0383 6.87296C16.0383 7.38382 15.6251 7.79696 15.1151 7.79696Z" fill="#DD2E44"/>
<path d="M10.9949 13.556C12.4164 13.556 13.5689 12.4035 13.5689 10.982C13.5689 9.56038 12.4164 8.40796 10.9949 8.40796C9.57329 8.40796 8.42087 9.56038 8.42087 10.982C8.42087 12.4035 9.57329 13.556 10.9949 13.556Z" fill="#DD2E44"/>
</svg>
