<svg width="32" height="36" viewBox="0 0 32 36" fill="none" xmlns="http://www.w3.org/2000/svg">
<circle opacity="0.1" cx="19" cy="23" r="13" fill="#F8130A"/>
<path d="M25.6763 17.3359C26.0668 16.9001 26.3047 16.3248 26.3047 15.6953C26.3047 14.3385 25.2005 13.2344 23.8438 13.2344H19.0673C19.5404 11.7988 19.7422 9.89406 19.7422 9.07758V8.25781C19.7422 6.44875 18.27 4.97656 16.4609 4.97656H15.6406C15.2644 4.97656 14.9363 5.2325 14.8449 5.59781L14.3981 7.38555C13.772 9.88914 11.7841 12.6514 9.72672 13.1534C9.36633 12.2413 8.47656 11.5938 7.4375 11.5938H2.51562C2.06281 11.5938 1.69531 11.9613 1.69531 12.4141V27.1797C1.69531 27.6325 2.06281 28 2.51562 28H7.4375C8.41586 28 9.26242 27.4263 9.65891 26.5973L12.4775 27.5368C13.399 27.8441 14.3593 28 15.3311 28H22.2031C23.5599 28 24.6641 26.8959 24.6641 25.5391C24.6641 25.2191 24.6028 24.9129 24.4912 24.6323C25.5347 24.3474 26.3047 23.3909 26.3047 22.2578C26.3047 21.6284 26.0668 21.053 25.6763 20.6172C26.0668 20.1813 26.3047 19.606 26.3047 18.9766C26.3047 18.3471 26.0668 17.7718 25.6763 17.3359ZM8.25781 25.5391C8.25781 25.9913 7.88977 26.3594 7.4375 26.3594H3.33594V13.2344H7.4375C7.88977 13.2344 8.25781 13.6024 8.25781 14.0547V25.5391ZM22.2031 18.1562H23.8438C24.296 18.1562 24.6641 18.5243 24.6641 18.9766C24.6641 19.4288 24.296 19.7969 23.8438 19.7969H22.2031C21.7503 19.7969 21.3828 20.1644 21.3828 20.6172C21.3828 21.07 21.7503 21.4375 22.2031 21.4375H23.8438C24.296 21.4375 24.6641 21.8055 24.6641 22.2578C24.6641 22.7101 24.296 23.0781 23.8438 23.0781H22.2031C21.7503 23.0781 21.3828 23.4456 21.3828 23.8984C21.3828 24.3512 21.7503 24.7188 22.2031 24.7188C22.6554 24.7188 23.0234 25.0868 23.0234 25.5391C23.0234 25.9913 22.6554 26.3594 22.2031 26.3594H15.3311C14.5359 26.3594 13.7501 26.232 12.9959 25.9804L9.89844 24.9479V14.7973C11.1852 14.5529 12.4447 13.738 13.5816 12.4042C14.6918 11.1016 15.592 9.37453 15.9895 7.78367L16.281 6.61719H16.4609C17.3655 6.61719 18.1016 7.35328 18.1016 8.25781V9.07758C18.1016 10.179 17.757 12.2916 17.3163 13.2344H15.6406C15.1878 13.2344 14.8203 13.6019 14.8203 14.0547C14.8203 14.5075 15.1878 14.875 15.6406 14.875H23.8438C24.296 14.875 24.6641 15.243 24.6641 15.6953C24.6641 16.1476 24.296 16.5156 23.8438 16.5156H22.2031C21.7503 16.5156 21.3828 16.8831 21.3828 17.3359C21.3828 17.7887 21.7503 18.1562 22.2031 18.1562Z" fill="#F8130A"/>
<path d="M5.79688 24.7188C6.24992 24.7188 6.61719 24.3515 6.61719 23.8984C6.61719 23.4454 6.24992 23.0781 5.79688 23.0781C5.34383 23.0781 4.97656 23.4454 4.97656 23.8984C4.97656 24.3515 5.34383 24.7188 5.79688 24.7188Z" fill="#F8130A"/>
<path d="M17.2812 0C16.8282 0 16.4609 0.367281 16.4609 0.820312V2.51562C16.4609 2.96866 16.8282 3.33594 17.2812 3.33594C17.7343 3.33594 18.1016 2.96866 18.1016 2.51562V0.820312C18.1016 0.367281 17.7343 0 17.2812 0Z" fill="#F8130A"/>
<path d="M13.8009 3.6174L12.6408 2.45731C12.3205 2.13695 11.8011 2.13695 11.4807 2.45731C11.1604 2.77767 11.1604 3.29704 11.4807 3.6174L12.6408 4.77748C12.9611 5.09779 13.4806 5.09784 13.8009 4.77748C14.1213 4.45712 14.1213 3.93776 13.8009 3.6174Z" fill="#F8130A"/>
<path d="M23.0816 2.45731C22.7613 2.13695 22.2419 2.13695 21.9215 2.45731L20.7615 3.61734C20.4411 3.9377 20.4411 4.45707 20.7615 4.77743C21.0818 5.09779 21.6012 5.09785 21.9215 4.77749L23.0816 3.6174C23.402 3.29704 23.402 2.77767 23.0816 2.45731Z" fill="#F8130A"/>
</svg>
