<svg width="20" height="19" viewBox="0 0 20 19" fill="none" xmlns="http://www.w3.org/2000/svg">
<path d="M4.65371 6.19787C5.5744 6.19787 6.32076 5.4515 6.32076 4.53082C6.32076 3.61013 5.5744 2.86377 4.65371 2.86377C3.73303 2.86377 2.98666 3.61013 2.98666 4.53082C2.98666 5.4515 3.73303 6.19787 4.65371 6.19787Z" fill="#DD2E44"/>
<path d="M7.89486 7.46099V16.7098H10.7665V12.136C10.7665 10.9292 10.9935 9.76042 12.4899 9.76042C13.9657 9.76042 13.984 11.1402 13.984 12.2122V16.7105H16.8571V11.6385C16.8571 9.14709 16.3208 7.23242 13.4088 7.23242C12.0107 7.23242 11.0735 7.99966 10.6903 8.72576H10.6514V7.46099H7.89486V7.46099ZM3.21524 7.46099H6.09143V16.7098H3.21524V7.46099Z" fill="#DD2E44"/>
</svg>
