<svg width="38" height="38" viewBox="0 0 38 38" fill="none" xmlns="http://www.w3.org/2000/svg">
<circle cx="19" cy="19" r="19" fill="#FFEFEE"/>
<circle cx="30.1765" cy="33.1569" r="4.84314" fill="#F77D7D"/>
<g clip-path="url(#clip0_1017_11702)">
<path d="M19.3725 18.5064C21.1334 18.5064 22.5609 17.0789 22.5609 15.318C22.5609 13.5571 21.1334 12.1296 19.3725 12.1296C17.6116 12.1296 16.1841 13.5571 16.1841 15.318C16.1841 17.0789 17.6116 18.5064 19.3725 18.5064Z" fill="#473B24"/>
<path d="M21.7941 20.2015H16.951C15.7805 20.2015 14.8119 21.1701 14.8119 22.3405V27.3855C16.2245 27.8294 17.7582 28.0312 19.3725 28.0312C20.9869 28.0312 22.5206 27.7891 23.9332 27.3855V22.3405C23.9332 21.1701 22.9645 20.2015 21.7941 20.2015ZM24.2964 9.18335C22.8435 9.18335 21.5923 10.1923 21.2291 11.5242C22.6417 12.2103 23.6103 13.6633 23.6103 15.318C23.6103 15.3583 23.6103 15.4391 23.6103 15.4794C23.8524 15.5198 24.0542 15.5601 24.3368 15.5601C26.1126 15.5601 27.5252 14.1476 27.5252 12.3717C27.5252 10.5959 26.0319 9.18335 24.2964 9.18335Z" fill="#473B24"/>
<path d="M26.718 17.2552H23.126C22.682 18.1028 21.9555 18.7889 21.0676 19.1925H21.7941C23.5296 19.1925 24.9825 20.6051 24.9825 22.3809V25.1657C26.3547 25.1253 27.6462 24.8832 28.857 24.52V19.3943C28.857 18.2239 27.8884 17.2552 26.718 17.2552ZM15.1752 15.4794C15.1752 15.4391 15.1752 15.3583 15.1752 15.318C15.1752 13.6633 16.1438 12.2103 17.5564 11.5242C17.1931 10.152 15.942 9.18335 14.489 9.18335C12.7132 9.18335 11.3006 10.5959 11.3006 12.3717C11.3006 14.1476 12.7132 15.5601 14.489 15.5601C14.6908 15.5601 14.933 15.5198 15.1752 15.4794ZM13.7626 22.3405C13.7626 20.6051 15.1752 19.1521 16.951 19.1521H17.7178C16.8299 18.7485 16.1034 18.0624 15.6595 17.2149H12.0271C10.8567 17.2149 9.88806 18.1835 9.88806 19.3539V24.3989C11.0988 24.7621 12.4307 25.0043 13.7626 25.0446V22.3405Z" fill="#473B24"/>
</g>
<defs>
<clipPath id="clip0_1017_11702">
<rect width="19.3725" height="19.3725" fill="white" transform="translate(9.68628 8.94116)"/>
</clipPath>
</defs>
</svg>
