<svg width="17" height="13" viewBox="0 0 17 13" fill="none" xmlns="http://www.w3.org/2000/svg">
<path d="M0.521307 13V9.59091C0.521307 8.58475 0.710701 7.52533 1.08949 6.41264C1.46828 5.29995 1.99503 4.23461 2.66974 3.21662C3.34446 2.19863 4.13755 1.3286 5.04901 0.606534L7.67685 2.48863C6.95478 3.54214 6.33925 4.64299 5.83026 5.79119C5.32126 6.93939 5.06676 8.18821 5.06676 9.53764V13H0.521307ZM9.5767 13V9.59091C9.5767 8.58475 9.7661 7.52533 10.1449 6.41264C10.5237 5.29995 11.0504 4.23461 11.7251 3.21662C12.3999 2.19863 13.1929 1.3286 14.1044 0.606534L16.7322 2.48863C16.0102 3.54214 15.3947 4.64299 14.8857 5.79119C14.3767 6.93939 14.1222 8.18821 14.1222 9.53764V13H9.5767Z" fill="#F8130A"/>
</svg>
