<svg width="21" height="20" viewBox="0 0 21 20" fill="none" xmlns="http://www.w3.org/2000/svg">
<path d="M5.31836 12.4546C6.03435 12.4505 6.72299 12.1791 7.24927 11.6937L12.3711 14.6227C12.3058 14.8488 12.2728 15.0829 12.2729 15.3182C12.2677 15.9822 12.4913 16.6277 12.9063 17.1461C13.3213 17.6644 13.9022 18.024 14.5513 18.1642C15.2003 18.3043 15.8778 18.2166 16.4698 17.9157C17.0617 17.6148 17.5319 17.1191 17.8011 16.5122C18.0703 15.9052 18.1222 15.224 17.948 14.5832C17.7738 13.9425 17.3841 13.3813 16.8445 12.9943C16.305 12.6072 15.6486 12.4179 14.9858 12.4582C14.323 12.4985 13.6943 12.7659 13.2056 13.2155L8.08382 10.2864C8.14563 10.0848 8.17868 9.87543 8.182 9.66457L13.2138 6.78457C13.6999 7.2238 14.3222 7.48255 14.9763 7.51741C15.6305 7.55228 16.2768 7.36114 16.8068 6.97606C17.3368 6.59098 17.7182 6.03538 17.8872 5.40243C18.0561 4.76948 18.0023 4.09769 17.7347 3.49971C17.4672 2.90174 17.0021 2.41396 16.4176 2.11817C15.833 1.82239 15.1646 1.73659 14.5243 1.87517C13.884 2.01375 13.3108 2.36828 12.9009 2.8793C12.491 3.39031 12.2693 4.02674 12.2729 4.68184C12.2757 4.91691 12.3087 5.15065 12.3711 5.37729L7.71564 8.03639C7.44589 7.61908 7.07219 7.27914 6.63129 7.04999C6.19038 6.82084 5.69743 6.71036 5.20089 6.72941C4.70436 6.74846 4.22132 6.89639 3.79927 7.15865C3.37722 7.42091 3.03067 7.78849 2.79369 8.22524C2.55671 8.66199 2.43746 9.15289 2.44765 9.64968C2.45785 10.1465 2.59714 10.6321 2.85183 11.0587C3.10652 11.4854 3.46786 11.8384 3.90031 12.0832C4.33277 12.3279 4.82146 12.4559 5.31836 12.4546ZM15.1365 14.0909C15.3793 14.0909 15.6166 14.1629 15.8184 14.2978C16.0202 14.4326 16.1775 14.6243 16.2704 14.8485C16.3633 15.0728 16.3876 15.3196 16.3402 15.5576C16.2929 15.7957 16.176 16.0144 16.0044 16.186C15.8327 16.3577 15.614 16.4745 15.376 16.5219C15.1379 16.5692 14.8911 16.5449 14.6669 16.4521C14.4426 16.3592 14.251 16.2019 14.1161 16C13.9812 15.7982 13.9093 15.5609 13.9093 15.3182C13.9093 14.9927 14.0386 14.6805 14.2687 14.4504C14.4989 14.2202 14.8111 14.0909 15.1365 14.0909ZM15.1365 3.45457C15.3793 3.45457 15.6166 3.52655 15.8184 3.6614C16.0202 3.79625 16.1775 3.98793 16.2704 4.21218C16.3633 4.43644 16.3876 4.6832 16.3402 4.92127C16.2929 5.15934 16.176 5.37802 16.0044 5.54965C15.8327 5.72129 15.614 5.83818 15.376 5.88553C15.1379 5.93289 14.8911 5.90858 14.6669 5.81569C14.4426 5.7228 14.251 5.5655 14.1161 5.36368C13.9812 5.16185 13.9093 4.92457 13.9093 4.68184C13.9093 4.35635 14.0386 4.04418 14.2687 3.81403C14.4989 3.58387 14.8111 3.45457 15.1365 3.45457ZM5.31836 8.36366C5.56109 8.36366 5.79838 8.43564 6.0002 8.57049C6.20202 8.70534 6.35933 8.89702 6.45222 9.12127C6.5451 9.34553 6.56941 9.59229 6.52205 9.83036C6.4747 10.0684 6.35781 10.2871 6.18618 10.4587C6.01454 10.6304 5.79586 10.7473 5.55779 10.7946C5.31972 10.842 5.07296 10.8177 4.84871 10.7248C4.62445 10.6319 4.43278 10.4746 4.29792 10.2728C4.16307 10.0709 4.09109 9.83366 4.09109 9.59093C4.09109 9.26544 4.22039 8.95328 4.45055 8.72312C4.68071 8.49296 4.99287 8.36366 5.31836 8.36366Z" fill="#263238"/>
</svg>
