<svg width="18" height="18" viewBox="0 0 18 18" fill="none" xmlns="http://www.w3.org/2000/svg">
<path d="M12.75 12.75H11.5807L4.30575 4.74525C4.23543 4.66796 4.14973 4.60623 4.05416 4.56399C3.95858 4.52176 3.85524 4.49996 3.75075 4.5H1.5V6H3.41925L6.48675 9.375L3.41925 12.7507H1.5V14.2507H3.75075C3.85524 14.2508 3.95858 14.229 4.05416 14.1868C4.14973 14.1445 4.23543 14.0828 4.30575 14.0055L7.5 10.4903L10.6943 14.0048C10.7646 14.082 10.8503 14.1438 10.9458 14.186C11.0414 14.2282 11.1448 14.25 11.2492 14.25H12.75V16.5L16.5 13.5L12.75 10.5V12.75Z" fill="#263238"/>
<path d="M11.5807 6H12.75V8.25L16.5 5.2965L12.75 2.25V4.5H11.2492C11.1448 4.49996 11.0414 4.52176 10.9458 4.56399C10.8503 4.60623 10.7646 4.66796 10.6942 4.74525L8.16824 7.5255L9.27824 8.535L11.5807 6Z" fill="#263238"/>
</svg>
