<svg width="24" height="24" viewBox="0 0 24 24" fill="none" xmlns="http://www.w3.org/2000/svg">
<path d="M21.1362 7.4316C21.0277 7.02912 20.8157 6.66208 20.5213 6.367C20.2269 6.07191 19.8603 5.85908 19.4581 5.74969C17.9667 5.34017 12 5.3335 12 5.3335C12 5.3335 6.03429 5.32684 4.54191 5.71827C4.13993 5.83269 3.77412 6.04853 3.47959 6.34506C3.18506 6.64159 2.9717 7.00886 2.86 7.4116C2.46667 8.90303 2.46286 11.9964 2.46286 11.9964C2.46286 11.9964 2.45905 15.1049 2.84953 16.5811C3.06858 17.3973 3.71143 18.0421 4.52858 18.2621C6.03524 18.6716 11.9857 18.6783 11.9857 18.6783C11.9857 18.6783 17.9524 18.6849 19.4438 18.2945C19.8462 18.1853 20.2131 17.9729 20.5082 17.6784C20.8034 17.384 21.0166 17.0175 21.1267 16.6154C21.521 15.1249 21.5238 12.0326 21.5238 12.0326C21.5238 12.0326 21.5429 8.92303 21.1362 7.4316V7.4316ZM10.0914 14.8621L10.0962 9.14779L15.0552 12.0097L10.0914 14.8621V14.8621Z" fill="#DD2E44"/>
</svg>
