<svg width="48" height="14" viewBox="0 0 48 14" fill="none" xmlns="http://www.w3.org/2000/svg">
<path d="M17.9414 11.7618C15.4454 11.3316 13.84 10.3113 13.1254 8.70094C13.5421 7.42445 13.562 6.05165 13.1825 4.76362C12.803 3.4756 12.042 2.33286 10.9999 1.48616C11.0272 1.05042 10.6689 0.897073 10.262 0.67237C9.85511 0.447667 9.54387 0.209297 9.19922 0.441591C8.00439 -0.0201671 6.70062 -0.122461 5.4484 0.147298C4.19618 0.417057 3.05017 1.04709 2.15145 1.95985L1.15699 1.76096C1.13493 1.75206 1.11053 1.75082 1.08768 1.75742C1.06484 1.76403 1.04487 1.77811 1.03097 1.7974L0.019806 3.20635C0.00528057 3.22648 -0.00162375 3.25111 0.000322698 3.27586C0.00226914 3.30061 0.0129398 3.32386 0.0304338 3.34147L0.680251 4.11882C0.14194 5.43637 0.0412687 6.89203 0.393084 8.27114C0.7449 9.65024 1.53058 10.8798 2.63425 11.7785C2.63425 12.1854 2.92576 12.2977 3.30533 12.5072C3.68489 12.7167 4.01891 12.9733 4.35748 12.7896C5.62535 13.2964 7.01862 13.3999 8.34745 13.0861C9.67629 12.7723 10.8761 12.0564 11.7833 11.036C13.2925 10.3589 15.0035 11.2911 16.8847 13.5776C17.0009 13.7202 17.1504 13.8322 17.32 13.9036C17.4896 13.975 17.6742 14.0037 17.8574 13.9872C18.0407 13.9708 18.2172 13.9096 18.3713 13.809C18.5254 13.7085 18.6525 13.5717 18.7415 13.4106C18.8275 13.2532 18.8746 13.0776 18.879 12.8983C18.8833 12.719 18.8447 12.5413 18.7664 12.38C18.6881 12.2186 18.5724 12.0783 18.4289 11.9708C18.2854 11.8633 18.1182 11.7916 17.9414 11.7618ZM11.633 9.18071C11.0204 10.3438 10.0075 11.2459 8.78152 11.7204C7.55553 12.1948 6.19926 12.2095 4.96327 11.7618C4.66368 11.653 4.37412 11.5184 4.09786 11.3594C3.79633 11.1851 3.51258 10.9817 3.25067 10.7521C2.29042 9.91836 1.65242 8.77471 1.4474 7.51965C1.24239 6.26459 1.4833 4.97736 2.12833 3.88139C2.77336 2.78542 3.78177 1.9499 4.97855 1.51985C6.17533 1.08981 7.4849 1.0924 8.67997 1.52715C8.97816 1.63635 9.26663 1.77043 9.54235 1.92797C10.7591 2.63456 11.6558 3.78384 12.0454 5.13584C12.4349 6.48785 12.2872 7.93808 11.633 9.18375V9.18071Z" fill="white"/>
<path d="M9.16887 6.41248L7.53564 5.56375L5.9024 4.71502C5.79876 4.66089 5.6812 4.63237 5.56152 4.63232C5.44184 4.63228 5.32426 4.66071 5.22056 4.71476C5.11687 4.76882 5.03071 4.84659 4.97075 4.94028C4.91078 5.03398 4.87911 5.14029 4.87891 5.24855V8.64676C4.87879 8.75517 4.91023 8.86169 4.97007 8.95561C5.0299 9.04953 5.11603 9.12754 5.21978 9.18178C5.32352 9.23603 5.44123 9.26461 5.56107 9.26463C5.6809 9.26466 5.79862 9.23614 5.9024 9.18194L7.53564 8.33321L9.16887 7.48284C9.27292 7.42874 9.35935 7.35078 9.41946 7.25682C9.47956 7.16286 9.51122 7.05622 9.51122 6.94766C9.51122 6.8391 9.47956 6.73246 9.41946 6.6385C9.35935 6.54453 9.27292 6.46658 9.16887 6.41248V6.41248Z" fill="white"/>
<path d="M19.25 7.36071V8.10544H17.9488V7.57893C17.9488 7.24661 17.8667 7.15451 17.5363 7.15451H16.0989V8.10544H14.8057V4.38379H17.7005C18.7295 4.38379 19.242 4.80821 19.242 5.58497C19.242 6.15353 18.9978 6.48385 18.5493 6.63801C18.6446 6.63278 18.7399 6.64808 18.8288 6.68286C18.9177 6.71764 18.998 6.7711 19.0645 6.83961C19.1309 6.90813 19.1818 6.99011 19.2138 7.08001C19.2459 7.16991 19.2582 7.26563 19.25 7.36071V7.36071ZM16.1069 5.4168V6.1215H17.3982C17.6885 6.1215 17.9047 6.1215 17.9047 5.76915C17.9047 5.41681 17.6885 5.4168 17.3982 5.4168H16.1069Z" fill="white"/>
<path d="M22.9097 6.99274H24.0729C23.8727 7.76349 23.2421 8.20793 21.9388 8.20793C20.5374 8.20793 19.6846 7.64938 19.6846 6.5523C19.6846 5.45522 20.5995 4.89868 21.8867 4.89868C23.214 4.89868 24.0889 5.48926 24.0889 6.7505H20.8858C20.9678 7.19894 21.3562 7.32907 21.9808 7.32907C22.5694 7.32907 22.8076 7.19494 22.9097 6.99274ZM20.9318 6.15992H22.8697C22.7356 5.80357 22.4032 5.67545 21.8927 5.67545C21.3822 5.67545 21.0519 5.80357 20.9318 6.15992V6.15992Z" fill="white"/>
<path d="M26.7249 4.89868C28.0001 4.89868 28.7709 5.34312 28.927 6.27003H27.7138C27.6157 6.00577 27.3255 5.82959 26.7269 5.82959C26.0602 5.82959 25.7019 6.0458 25.7019 6.5523C25.7019 7.0588 26.0602 7.27702 26.7269 7.27702C27.3275 7.27702 27.6157 7.10084 27.7138 6.83658H28.927C28.7729 7.76349 28.0021 8.20793 26.7249 8.20793C25.3035 8.20793 24.5127 7.64938 24.5127 6.5523C24.5127 5.45522 25.3035 4.89868 26.7249 4.89868Z" fill="white"/>
<path d="M29.4424 3.96948H30.6296V4.6922H29.4424V3.96948ZM29.4424 5.0025H30.6296V8.10354H29.4424V5.0025Z" fill="white"/>
<path d="M35.572 6.5523C35.572 7.80353 34.6791 8.20793 33.8783 8.20793C33.3137 8.20793 32.7552 8.03176 32.4409 7.55129V9.35306H31.2617V5.00278H32.4509V5.55533C32.7652 5.07485 33.3237 4.89868 33.8883 4.89868C34.6791 4.89868 35.572 5.30307 35.572 6.5523ZM34.3327 6.5523C34.3327 6.09786 34.0164 5.88165 33.3858 5.88165C32.7552 5.88165 32.4409 6.09786 32.4409 6.5523C32.4409 7.00675 32.7552 7.22497 33.3858 7.22497C34.0164 7.22497 34.3327 7.00875 34.3327 6.5523Z" fill="white"/>
<path d="M36.0889 3.96948H37.278V8.10354H36.0889V3.96948Z" fill="white"/>
<path d="M42.1529 6.51627V8.10383H40.9637V7.68942C40.4285 7.99921 39.8203 8.16026 39.202 8.15588C38.3892 8.15588 37.7686 7.90163 37.7686 7.16891C37.7686 6.32008 38.6995 6.10787 39.5523 6.10787C40.0268 6.11229 40.4997 6.16461 40.9637 6.26402C40.9317 5.8356 40.5453 5.72549 40.0028 5.72549C39.3898 5.73604 38.7803 5.81937 38.187 5.97374L38.0228 5.16294C38.7447 4.99294 39.4834 4.9043 40.225 4.89868C41.5222 4.89868 42.1429 5.33311 42.1529 6.51627ZM40.9637 7.17291V6.93668C40.5549 6.8732 40.1421 6.83842 39.7285 6.83258C39.206 6.83258 39.0098 6.89864 39.0098 7.08483C39.0098 7.27101 39.1639 7.32907 39.6104 7.32907C40.0645 7.30735 40.5166 7.25518 40.9637 7.17291V7.17291Z" fill="white"/>
<path d="M45.8004 5.00171H47.0016L45.5442 8.02468C45.1097 8.92556 44.6393 9.44608 43.6823 9.44608C43.2851 9.43777 42.8906 9.37719 42.5092 9.2659V8.36101C42.8368 8.44617 43.1721 8.49848 43.5102 8.51716C43.9106 8.51716 44.0787 8.48513 44.2949 8.10275H43.7364L42.2529 5.00171H43.4541L44.6273 7.4361L45.8004 5.00171Z" fill="white"/>
</svg>
